<svg width="614" height="88" viewBox="0 0 614 88" fill="none" xmlns="http://www.w3.org/2000/svg">
<path d="M154.969 41.3438V43.1875C154.969 46.6667 154.479 49.7917 153.5 52.5625C152.542 55.3125 151.177 57.6667 149.406 59.625C147.635 61.5625 145.542 63.0521 143.125 64.0938C140.708 65.1146 138.042 65.625 135.125 65.625C132.188 65.625 129.5 65.1146 127.062 64.0938C124.646 63.0521 122.542 61.5625 120.75 59.625C118.979 57.6667 117.604 55.3125 116.625 52.5625C115.667 49.7917 115.188 46.6667 115.188 43.1875V41.3438C115.188 37.8646 115.667 34.7396 116.625 31.9688C117.604 29.1979 118.969 26.8438 120.719 24.9062C122.49 22.9479 124.583 21.4583 127 20.4375C129.438 19.3958 132.125 18.875 135.062 18.875C137.979 18.875 140.646 19.3958 143.062 20.4375C145.5 21.4583 147.604 22.9479 149.375 24.9062C151.146 26.8438 152.521 29.1979 153.5 31.9688C154.479 34.7396 154.969 37.8646 154.969 41.3438ZM143.844 43.1875V41.2812C143.844 39.0312 143.646 37.0521 143.25 35.3438C142.875 33.6146 142.312 32.1667 141.562 31C140.812 29.8333 139.885 28.9583 138.781 28.375C137.698 27.7708 136.458 27.4688 135.062 27.4688C133.604 27.4688 132.333 27.7708 131.25 28.375C130.167 28.9583 129.26 29.8333 128.531 31C127.802 32.1667 127.25 33.6146 126.875 35.3438C126.521 37.0521 126.344 39.0312 126.344 41.2812V43.1875C126.344 45.4167 126.521 47.3958 126.875 49.125C127.25 50.8333 127.802 52.2812 128.531 53.4688C129.281 54.6562 130.198 55.5521 131.281 56.1562C132.385 56.7604 133.667 57.0625 135.125 57.0625C136.521 57.0625 137.76 56.7604 138.844 56.1562C139.927 55.5521 140.833 54.6562 141.562 53.4688C142.312 52.2812 142.875 50.8333 143.25 49.125C143.646 47.3958 143.844 45.4167 143.844 43.1875ZM190.719 56.5625V65H167.719V56.5625H190.719ZM171.625 19.5V65H160.656V19.5H171.625ZM207 19.5V65H196.062V19.5H207ZM231.938 54.2812L241.406 19.5H253.688L238.344 65H230.406L231.938 54.2812ZM223.344 19.5L232.812 54.2812L234.406 65H226.375L211.125 19.5H223.344ZM288.344 56.5625V65H264.094V56.5625H288.344ZM268 19.5V65H257.031V19.5H268ZM285.219 37.5625V45.7188H264.094V37.5625H285.219ZM288.438 19.5V27.9688H264.094V19.5H288.438ZM304.5 19.5V65H293.562V19.5H304.5ZM312.219 19.5H330.125C333.625 19.5 336.667 20.0208 339.25 21.0625C341.833 22.1042 343.823 23.6458 345.219 25.6875C346.635 27.7292 347.344 30.25 347.344 33.25C347.344 35.8542 346.938 38.0312 346.125 39.7812C345.312 41.5312 344.177 42.9792 342.719 44.125C341.281 45.25 339.604 46.1771 337.688 46.9062L334.094 48.9375H319.062L319 40.4688H330.125C331.521 40.4688 332.677 40.2188 333.594 39.7188C334.51 39.2188 335.198 38.5104 335.656 37.5938C336.135 36.6562 336.375 35.5417 336.375 34.25C336.375 32.9375 336.135 31.8125 335.656 30.875C335.177 29.9375 334.469 29.2188 333.531 28.7188C332.615 28.2188 331.479 27.9688 330.125 27.9688H323.188V65H312.219V19.5ZM337.125 65L327.062 44.875L338.688 44.8125L348.875 64.5312V65H337.125ZM373.25 29.0625L362.156 65H350.375L367.094 19.5H374.562L373.25 29.0625ZM382.438 65L371.312 29.0625L369.875 19.5H377.438L394.25 65H382.438ZM382 48.0312V56.5H358.656V48.0312H382ZM433.688 19.5V65H422.719V19.5H433.688ZM447.375 19.5V27.9688H409.344V19.5H447.375ZM452.031 19.5H469.938C473.438 19.5 476.479 20.0208 479.062 21.0625C481.646 22.1042 483.635 23.6458 485.031 25.6875C486.448 27.7292 487.156 30.25 487.156 33.25C487.156 35.8542 486.75 38.0312 485.938 39.7812C485.125 41.5312 483.99 42.9792 482.531 44.125C481.094 45.25 479.417 46.1771 477.5 46.9062L473.906 48.9375H458.875L458.812 40.4688H469.938C471.333 40.4688 472.49 40.2188 473.406 39.7188C474.323 39.2188 475.01 38.5104 475.469 37.5938C475.948 36.6562 476.188 35.5417 476.188 34.25C476.188 32.9375 475.948 31.8125 475.469 30.875C474.99 29.9375 474.281 29.2188 473.344 28.7188C472.427 28.2188 471.292 27.9688 469.938 27.9688H463V65H452.031V19.5ZM476.938 65L466.875 44.875L478.5 44.8125L488.688 64.5312V65H476.938ZM518.469 19.5H529.438V49.2188C529.438 52.7604 528.698 55.7604 527.219 58.2188C525.74 60.6562 523.667 62.5 521 63.75C518.333 65 515.198 65.625 511.594 65.625C508.031 65.625 504.896 65 502.188 63.75C499.5 62.5 497.396 60.6562 495.875 58.2188C494.375 55.7604 493.625 52.7604 493.625 49.2188V19.5H504.625V49.2188C504.625 51.0938 504.896 52.625 505.438 53.8125C505.979 54.9792 506.771 55.8333 507.812 56.375C508.854 56.9167 510.115 57.1875 511.594 57.1875C513.094 57.1875 514.354 56.9167 515.375 56.375C516.396 55.8333 517.167 54.9792 517.688 53.8125C518.208 52.625 518.469 51.0938 518.469 49.2188V19.5ZM559.781 52.9062C559.781 52.1979 559.677 51.5625 559.469 51C559.26 50.4167 558.875 49.875 558.312 49.375C557.75 48.875 556.938 48.375 555.875 47.875C554.833 47.3542 553.458 46.8125 551.75 46.25C549.75 45.5833 547.823 44.8333 545.969 44C544.115 43.1458 542.458 42.1562 541 41.0312C539.542 39.8854 538.385 38.5521 537.531 37.0312C536.677 35.4896 536.25 33.6979 536.25 31.6562C536.25 29.6979 536.688 27.9375 537.562 26.375C538.438 24.7917 539.656 23.4479 541.219 22.3438C542.802 21.2188 544.656 20.3646 546.781 19.7812C548.906 19.1771 551.229 18.875 553.75 18.875C557.083 18.875 560.021 19.4583 562.562 20.625C565.125 21.7708 567.125 23.4062 568.562 25.5312C570.021 27.6354 570.75 30.125 570.75 33H559.844C559.844 31.8542 559.604 30.8438 559.125 29.9688C558.667 29.0938 557.969 28.4062 557.031 27.9062C556.094 27.4062 554.917 27.1562 553.5 27.1562C552.125 27.1562 550.969 27.3646 550.031 27.7812C549.094 28.1979 548.385 28.7604 547.906 29.4688C547.427 30.1562 547.188 30.9167 547.188 31.75C547.188 32.4375 547.375 33.0625 547.75 33.625C548.146 34.1667 548.698 34.6771 549.406 35.1562C550.135 35.6354 551.01 36.0938 552.031 36.5312C553.073 36.9688 554.24 37.3958 555.531 37.8125C557.948 38.5833 560.094 39.4479 561.969 40.4062C563.865 41.3438 565.458 42.4167 566.75 43.625C568.062 44.8125 569.052 46.1667 569.719 47.6875C570.406 49.2083 570.75 50.9271 570.75 52.8438C570.75 54.8854 570.354 56.6979 569.562 58.2812C568.771 59.8646 567.635 61.2083 566.156 62.3125C564.677 63.3958 562.906 64.2188 560.844 64.7812C558.781 65.3438 556.479 65.625 553.938 65.625C551.604 65.625 549.302 65.3333 547.031 64.75C544.781 64.1458 542.74 63.2292 540.906 62C539.073 60.75 537.604 59.1562 536.5 57.2188C535.417 55.2604 534.875 52.9375 534.875 50.25H545.875C545.875 51.5833 546.052 52.7083 546.406 53.625C546.76 54.5417 547.281 55.2812 547.969 55.8438C548.656 56.3854 549.5 56.7812 550.5 57.0312C551.5 57.2604 552.646 57.375 553.938 57.375C555.333 57.375 556.458 57.1771 557.312 56.7812C558.167 56.3646 558.792 55.8229 559.188 55.1562C559.583 54.4688 559.781 53.7188 559.781 52.9062ZM598.438 19.5V65H587.469V19.5H598.438ZM612.125 19.5V27.9688H574.094V19.5H612.125Z" fill="#505050"/>
<path fill-rule="evenodd" clip-rule="evenodd" d="M14 0C6.26801 0 0 6.26802 0 14V27C0 27 10 42 19.5 45C25.8054 46.3275 28.5 46.5 36 45C43.5 42 47 38 51.5 32C54.5638 26.5 55 23.5 55 16C55 9.5 50 0 50 0H14ZM66 0C66 0 69.3548 9.42432 70 16C70.6149 22.2669 70.1118 26.0677 68 32C65.548 38.8878 58 47 58 47H90V14C90 6.26802 83.732 0 76 0H66ZM90 61H73V88H76C83.732 88 90 81.732 90 74V61ZM60 88V61H19.5C10.5 61 0 50.5 0 50.5V74C0 81.732 6.26801 88 14 88H60Z" fill="#DB0101"/>
</svg>
